<svg width="24" height="24" viewBox="0 0 24 24" fill="none" xmlns="http://www.w3.org/2000/svg">
<path d="M17.3049 6.99574C17.3049 6.77271 17.261 6.55181 17.1756 6.34576C17.0903 6.1397 16.9652 5.9525 16.8075 5.79479C16.6498 5.63708 16.4625 5.51199 16.2565 5.42664C16.0504 5.34129 15.8296 5.29736 15.6066 5.29736C15.3835 5.29736 15.1627 5.34129 14.9566 5.42664C14.7506 5.51199 14.5633 5.63708 14.4056 5.79479C14.2479 5.9525 14.1228 6.1397 14.0375 6.34576C13.9521 6.55181 13.9082 6.77271 13.9082 6.99574C13.9082 7.21877 13.9521 7.43962 14.0375 7.64567C14.1228 7.85172 14.2479 8.03893 14.4056 8.19664C14.5633 8.35435 14.7506 8.47944 14.9566 8.56479C15.1627 8.65014 15.3835 8.69407 15.6066 8.69407C15.8296 8.69407 16.0504 8.65014 16.2565 8.56479C16.4625 8.47944 16.6498 8.35435 16.8075 8.19664C16.9652 8.03893 17.0903 7.85172 17.1756 7.64567C17.261 7.43962 17.3049 7.21877 17.3049 6.99574Z" fill="#5B5E6C"/>
<path d="M17.9384 2C16.341 2.01924 14.779 2.47291 13.4199 3.31239C12.0607 4.15188 10.9558 5.34553 10.2234 6.76526L10.2962 6.62225L7.7518 11.4506L3.95434 20.3621C3.89381 20.5043 3.8619 20.6571 3.86041 20.8116C3.85892 20.9662 3.88789 21.1195 3.94566 21.2629C4.00343 21.4063 4.08888 21.5368 4.19711 21.6472C4.30535 21.7575 4.43427 21.8454 4.57649 21.906C4.71872 21.9665 4.87148 21.9985 5.02604 21.9999C5.1806 22.0014 5.33394 21.9724 5.47731 21.9147C5.62067 21.8569 5.75126 21.7714 5.8616 21.6632C5.97195 21.555 6.05989 21.4261 6.12042 21.2838L8.457 15.7984C8.46819 15.7736 8.48628 15.7526 8.5091 15.7379C8.53192 15.7232 8.55851 15.7153 8.58567 15.7153C8.61284 15.7153 8.63942 15.7232 8.66225 15.7379C8.68507 15.7526 8.70316 15.7736 8.71435 15.7984L11.2674 21.1035C11.4029 21.3846 11.6445 21.6004 11.9391 21.7034C12.2336 21.8064 12.5571 21.7883 12.8382 21.6529C13.1194 21.5175 13.3353 21.276 13.4385 20.9815C13.5417 20.687 13.5236 20.3635 13.3884 20.0823L10.5767 14.2399C10.5673 14.2204 10.5626 14.1989 10.5629 14.1773C10.5631 14.1556 10.5683 14.1343 10.5781 14.115C10.5879 14.0957 10.6021 14.0789 10.6194 14.0659C10.6367 14.0529 10.6568 14.0441 10.6781 14.0401L15.173 13.2266C15.3117 13.2015 15.4431 13.1459 15.5577 13.0639C15.6723 12.9818 15.7673 12.8754 15.8358 12.7522C15.9043 12.6291 15.9447 12.4923 15.954 12.3517C15.9633 12.2111 15.9413 12.0701 15.8896 11.939C15.1663 10.0199 13.9855 8.30636 12.4495 6.94729C12.423 6.92433 12.4061 6.89235 12.4019 6.85756C12.3977 6.82277 12.4065 6.78763 12.4268 6.75902C13.0593 5.88005 13.8894 5.16188 14.8501 4.66229C15.8109 4.16269 16.8756 3.89566 17.9584 3.88266C18.2062 3.87692 18.4417 3.77366 18.6139 3.59533C18.7861 3.41699 18.881 3.17794 18.878 2.93008C18.875 2.68222 18.7743 2.44557 18.5979 2.27145C18.4215 2.09732 18.1835 1.9998 17.9356 2.00005L17.9384 2ZM12.7319 10.0314C13.092 10.5207 13.4099 11.0397 13.6821 11.5829L11.7275 11.9372L12.7319 10.0314Z" fill="#5B5E6C"/>
</svg>