<svg width="24" height="24" viewBox="0 0 24 24" fill="none" xmlns="http://www.w3.org/2000/svg">
<path d="M9.64678 4.9874C9.64678 3.88984 10.5641 3 11.6954 3C12.8272 3 13.7448 3.88962 13.7448 4.9874C13.7448 6.08453 12.8277 6.97415 11.6954 6.97415C10.5639 6.97415 9.64678 6.08453 9.64678 4.9874ZM20 7.61854C20 8.38512 19.3594 9.00657 18.5685 9.00657C18.131 9.00657 17.7407 8.81599 17.4778 8.51652L15.371 8.68866V10.7549C15.371 11.0636 15.1893 11.3451 14.9031 11.4801C14.7879 11.5342 14.6635 11.561 14.5403 11.561C14.3569 11.561 14.1752 11.502 14.0257 11.388L12.0363 9.86832C11.7182 11.0636 10.8265 11.6527 10.8265 11.6527C10.6256 12.46 10.6033 12.9653 10.6399 13.2785C10.6985 13.3078 10.7551 13.3419 10.8086 13.3829L14.0414 15.8607C14.2417 16.0147 14.3748 16.2357 14.4146 16.4803L15.1226 20.8388C15.2099 21.3766 14.8317 21.8804 14.2773 21.9655C14.2238 21.9734 14.1703 21.9777 14.1179 21.9777C13.6265 21.9777 13.1944 21.6315 13.1159 21.1455L12.4696 17.1673L9.65208 15.008L10.7602 17.3255C10.9673 17.7585 10.8247 18.273 10.4215 18.5468L5.59917 21.8221C5.42166 21.9425 5.21852 22 5.01715 22C4.69663 22.0004 4.38163 21.8536 4.18402 21.5801C3.86195 21.1346 3.97358 20.5204 4.43336 20.2081L8.55944 17.4061L7.19248 14.5473C7.10119 14.3565 7.07908 14.1522 7.11467 13.9606L7.39474 8.46465L7.39894 8.46164C7.40049 8.04835 7.72344 7.69678 8.15581 7.66141L13.709 7.20695V6.48818C13.6756 6.4646 13.642 6.43931 13.6108 6.41315C13.7267 6.26695 13.8259 6.10725 13.9042 5.93683C13.9075 5.93061 13.9097 5.92418 13.9128 5.91775C13.9347 5.86995 13.9543 5.82086 13.9727 5.77155C13.9773 5.7589 13.9822 5.74647 13.9864 5.73404C14.0019 5.68988 14.0156 5.64508 14.0282 5.59984C14.0328 5.58334 14.0377 5.56662 14.0419 5.55011C14.0527 5.50767 14.0618 5.46458 14.0704 5.42149C14.0739 5.40241 14.0781 5.38355 14.0817 5.36447C14.089 5.32031 14.0947 5.27594 14.0993 5.23113C14.1011 5.21291 14.104 5.19512 14.1058 5.17668C14.1106 5.11409 14.1139 5.05085 14.1139 4.98697C14.1139 4.92566 14.1093 4.86585 14.1044 4.80604C14.1007 4.7681 14.0971 4.72994 14.0916 4.69243C14.0649 4.48685 14.012 4.28835 13.9336 4.10249C14.1179 4.0191 14.323 3.97065 14.5401 3.97065C15.3304 3.97065 15.9714 4.59232 15.9714 5.3589C15.9714 5.8245 15.7342 6.23587 15.3708 6.48754V7.07083L17.3388 6.90984C17.5886 6.5034 18.0446 6.23008 18.5683 6.23008C19.3594 6.2303 20 6.85153 20 7.61854ZM13.661 8.87923L13.2134 8.91567L13.661 9.25802V8.87923Z" fill="#5B5E6C"/>
</svg>