<svg width="24" height="24" viewBox="0 0 24 24" fill="none" xmlns="http://www.w3.org/2000/svg">
<path d="M21.177 14.5747H22.999V14.2313H21.0918L21.177 14.5747Z" fill="#5B5E6C"/>
<path d="M2.12305 14.2313V14.5747H3.06865L3.24777 14.2313H2.12305Z" fill="#5B5E6C"/>
<path d="M16.6893 14.2313L16.5059 14.5747H19.0155L18.1923 14.2313H16.6893Z" fill="#5B5E6C"/>
<path d="M13.0332 14.2313C13.0746 14.3398 13.1077 14.4545 13.1328 14.5747H14.3275L14.5109 14.2313H13.0332Z" fill="#5B5E6C"/>
<path d="M6.82812 14.2313C6.86956 14.3398 6.90266 14.4545 6.92768 14.5747H9.26971L9.44884 14.2313H6.82812Z" fill="#5B5E6C"/>
<path d="M19.6932 8.58339C19.8016 8.6567 19.9164 8.70705 20.0333 8.73653C20.5009 8.8543 21.0027 8.63111 21.2632 8.14354C21.5888 7.53413 21.4138 6.74297 20.8723 6.37661C20.3309 6.01001 19.628 6.20704 19.3024 6.81645C19.0419 7.30397 19.102 7.90748 19.4136 8.31717C19.4915 8.41949 19.5849 8.51002 19.6932 8.58339Z" fill="#5B5E6C"/>
<path d="M20.9168 11.6374C20.9961 11.4118 21.0306 11.1824 21.0305 10.9646C21.0299 10.5728 20.9235 10.2227 20.7795 9.93894C20.6473 9.68319 20.491 9.47889 20.3081 9.33222C20.2919 9.3166 20.2746 9.30195 20.2556 9.28907L18.7388 8.26248C18.7275 8.17006 18.7171 8.0441 18.7172 7.89468C18.7174 7.51183 18.7843 6.98374 19.0679 6.44444C19.3528 5.9057 19.855 5.33693 20.7946 4.87825C21.0009 4.77788 21.0958 4.50857 21.0066 4.27634C20.9177 4.04429 20.6782 3.93733 20.4721 4.03771C19.401 4.55647 18.7417 5.26396 18.3678 5.97804C17.9925 6.69172 17.9033 7.3932 17.9036 7.89462C17.9037 8.13578 17.9238 8.33184 17.9437 8.46764L13.673 16.461C13.494 16.796 13.5903 17.2306 13.8878 17.4319C14.1853 17.6334 14.5715 17.5252 14.7505 17.1903L17.0343 12.9158C17.0451 13.1949 17.2013 13.4529 17.4486 13.5561V13.556L19.5003 14.4116L20.1419 16.9977C20.2202 17.3138 20.4756 17.5208 20.7536 17.5209C20.8102 17.5209 20.8677 17.5123 20.9249 17.4943C21.2629 17.388 21.4605 16.9935 21.3661 16.613L20.6373 13.6753C20.5824 13.4542 20.4372 13.2767 20.246 13.197L18.9214 12.6446L20.0973 10.4436C20.17 10.6017 20.2175 10.7856 20.2169 10.9646C20.2167 11.0755 20.2001 11.1861 20.1602 11.3004C20.1116 11.4376 20.0246 11.5902 19.8718 11.7459C19.8115 11.8073 19.7413 11.8692 19.6587 11.9308C19.559 12.0052 19.4412 12.0791 19.3037 12.1513L19.0718 12.5853L19.8081 12.8924C19.8891 12.8448 19.9658 12.7954 20.0383 12.7441C20.2439 12.599 20.4163 12.4399 20.5563 12.2696C20.7181 12.0728 20.8375 11.8616 20.9156 11.6401C20.9159 11.6391 20.9164 11.6383 20.9168 11.6374Z" fill="#5B5E6C"/>
<path d="M6.54644 14.3568C6.46199 14.1403 6.3329 13.9492 6.15799 13.8179C6.15703 13.8172 6.15621 13.8164 6.15519 13.8158L6.15499 13.8157C6.14126 13.8054 6.12789 13.7948 6.1136 13.7853C6.10206 13.7777 6.09037 13.7711 6.07852 13.765L4.75764 12.8916C4.74737 12.8831 4.73664 12.8749 4.72535 12.8674H4.72525C4.72358 12.8674 4.6917 12.8405 4.66231 12.7568C4.63282 12.6751 4.60938 12.5461 4.60974 12.3872C4.6079 11.7902 4.92904 10.8239 5.87774 10.0769C6.03851 9.94966 6.07745 9.69987 5.96443 9.51892C5.85155 9.33779 5.62962 9.29413 5.4687 9.42117C4.3456 10.311 3.89965 11.4939 3.89781 12.3872C3.89822 12.6293 3.9303 12.8535 4.00138 13.0544C4.02843 13.1302 4.06179 13.204 4.10246 13.2729L2.88281 15.61L5.14873 16.4224L5.94999 14.8869C5.96316 14.9657 5.97088 15.0549 5.97078 15.1531C5.9717 15.5653 5.83432 16.1282 5.47454 16.7269C5.67263 16.8045 5.82171 16.9856 5.87403 17.2148L5.91694 17.4034C5.92548 17.393 5.93372 17.3823 5.9414 17.3708C6.45645 16.5926 6.68169 15.8118 6.6826 15.1531C6.68235 14.8617 6.63827 14.5926 6.54644 14.3568Z" fill="#5B5E6C"/>
<path d="M7.0028 12.6488C7.30017 12.0789 7.13079 11.3456 6.62448 11.0109C6.11817 10.6762 5.46666 10.8669 5.16929 11.4369C4.87192 12.0068 5.0413 12.7401 5.54762 13.0748C6.05393 13.4094 6.70543 13.2187 7.0028 12.6488Z" fill="#5B5E6C"/>
<path d="M3.28211 17.1866C3.34134 17.2619 3.41817 17.3215 3.50923 17.3551H3.50913L4.83525 17.8452L5.22512 19.559C5.28542 19.824 5.49729 20.0002 5.72965 20.0002C5.77246 20.0002 5.81588 19.9943 5.8593 19.9817C6.13803 19.9014 6.30627 19.5818 6.23489 19.268L5.77424 17.2428C5.73005 17.049 5.60071 16.8934 5.43195 16.831L5.01447 16.6767L5.01549 16.6749L2.74957 15.8625L1.07268 19.0758C0.925229 19.3584 1.00922 19.7224 1.2605 19.8885C1.51156 20.0545 1.83493 19.9598 1.98243 19.6772L3.28211 17.1866Z" fill="#5B5E6C"/>
<path d="M12.7476 14.3568C12.6632 14.1403 12.5341 13.9492 12.3592 13.8179C12.3582 13.8172 12.3574 13.8164 12.3564 13.8158L12.3562 13.8157C12.3424 13.8054 12.3291 13.7948 12.3148 13.7853C12.3032 13.7777 12.2915 13.7711 12.2797 13.765L10.9588 12.8916C10.9485 12.8831 10.9378 12.8749 10.9265 12.8674H10.9264C10.9247 12.8674 10.8929 12.8405 10.8635 12.7568C10.834 12.6751 10.8106 12.5461 10.8109 12.3872C10.8091 11.7902 11.1302 10.8239 12.0789 10.0769C12.2397 9.94966 12.2786 9.69987 12.1656 9.51892C12.0527 9.33779 11.8308 9.29413 11.6699 9.42117C10.5468 10.311 10.1008 11.4939 10.099 12.3872C10.0994 12.6293 10.1315 12.8535 10.2026 13.0544C10.2296 13.1302 10.263 13.204 10.3036 13.2729L9.08398 15.61L11.3499 16.4224L12.1512 14.8869C12.1643 14.9657 12.1721 15.0549 12.172 15.1531C12.1729 15.5653 12.0355 16.1282 11.6757 16.7269C11.8738 16.8045 12.0229 16.9856 12.0752 17.2148L12.1181 17.4034C12.1267 17.393 12.1349 17.3823 12.1426 17.3708C12.6577 16.5926 12.8829 15.8118 12.8838 15.1531C12.8835 14.8617 12.8394 14.5926 12.7476 14.3568Z" fill="#5B5E6C"/>
<path d="M13.2079 12.6488C13.5052 12.0789 13.3359 11.3456 12.8296 11.0109C12.3232 10.6762 11.6717 10.8669 11.3744 11.4369C11.077 12.0068 11.2464 12.7401 11.7527 13.0748C12.259 13.4094 12.9105 13.2187 13.2079 12.6488Z" fill="#5B5E6C"/>
<path d="M9.48318 17.1866C9.54241 17.2619 9.61924 17.3215 9.7103 17.3551H9.7102L11.0363 17.8452L11.4262 19.559C11.4865 19.824 11.6984 20.0002 11.9307 20.0002C11.9735 20.0002 12.0169 19.9943 12.0604 19.9817C12.3391 19.9014 12.5073 19.5818 12.436 19.268L11.9753 17.2428C11.9311 17.049 11.8018 16.8934 11.633 16.831L11.2155 16.6767L11.2166 16.6749L8.95064 15.8625L7.27385 19.0758C7.1264 19.3584 7.2104 19.7223 7.46167 19.8885C7.71274 20.0544 8.0361 19.9598 8.1836 19.6771L9.48318 17.1866Z" fill="#5B5E6C"/>
</svg>
