<svg width="24" height="24" viewBox="0 0 24 24" fill="none" xmlns="http://www.w3.org/2000/svg">
<path d="M11.5919 6.40778C12.4451 6.40778 13.1368 5.71607 13.1368 4.8628C13.1368 4.00952 12.4451 3.31781 11.5919 3.31781C10.7386 3.31781 10.0469 4.00952 10.0469 4.8628C10.0469 5.71607 10.7386 6.40778 11.5919 6.40778Z" fill="#5B5E6C"/>
<path d="M16.3287 13.7872L13.1168 12.2219L13.5437 8.23742L13.625 7.5869L15.6579 5.26942C15.7392 5.18811 15.7798 5.08646 15.8002 4.96449C15.8815 4.7612 15.8612 4.53759 15.7392 4.35463L14.2349 2.28109C14.0316 1.97616 13.6047 1.91518 13.2997 2.11846C12.9948 2.32175 12.9338 2.74866 13.1371 3.05359L14.3365 4.74088L12.5882 6.73309H10.0065C9.82352 6.73309 9.66089 6.81441 9.53892 6.95671L7.30275 9.51814C7.16045 9.68077 7.11979 9.90438 7.16045 10.1077C7.18078 10.2093 7.20111 10.3313 7.26209 10.4329L8.74609 12.5065C8.94938 12.8114 9.37629 12.8724 9.68122 12.6691C9.72188 12.6488 9.7422 12.6081 9.76253 12.5878V21.1462C9.76253 21.6138 10.1488 22 10.6163 22C11.0839 22 11.4701 21.6138 11.4701 21.1462V14.0108H11.8157L14.5601 14.9662L12.4053 17.4667C12.08 17.8123 12.1207 18.3611 12.4866 18.6661C12.8525 18.971 13.3811 18.9304 13.686 18.5848L16.654 15.1492C16.715 15.0882 16.7556 15.0272 16.7963 14.9459C16.9589 14.4987 16.776 13.9905 16.3287 13.7872ZM8.60379 10.006L9.7422 8.70499V11.5917V11.612L8.60379 10.006Z" fill="#5B5E6C"/>
</svg>