<svg width="24" height="24" viewBox="0 0 24 24" fill="none" xmlns="http://www.w3.org/2000/svg">
<g clip-path="url(#clip0)">
<path d="M23.581 7.37248L21.5964 5.38788L23.0882 3.89655C23.2202 3.76478 23.2943 3.58624 23.2943 3.39949C23.2943 3.21274 23.2202 3.03419 23.0883 2.90238L21.0909 0.904935C20.8272 0.641263 20.3603 0.641263 20.0966 0.904935L18.6053 2.39683L16.6204 0.411856C16.0712 -0.137285 15.1808 -0.137285 14.6317 0.411856C14.0824 0.960998 14.0824 1.85139 14.6317 2.40058L21.5922 9.3612C22.1414 9.91034 23.0318 9.91034 23.581 9.3612C24.1301 8.81206 24.1301 7.92167 23.581 7.37248Z" fill="#5B5E6C"/>
<path d="M9.36799 21.5994L2.40746 14.6388C1.85823 14.0896 0.967928 14.0896 0.418692 14.6388C-0.13045 15.188 -0.13045 16.0784 0.418692 16.6276L2.40362 18.6125L0.914631 20.1009C0.782771 20.2327 0.708615 20.4112 0.708615 20.598C0.708615 20.7847 0.782771 20.9633 0.914631 21.0951L2.91207 23.0919C3.04937 23.2293 3.22928 23.2979 3.40918 23.2979C3.58909 23.2979 3.769 23.2293 3.90629 23.0919L5.39467 21.6035L7.37927 23.5882C7.92841 24.1373 8.8188 24.1373 9.36799 23.5882C9.91723 23.039 9.91723 22.1486 9.36799 21.5994Z" fill="#5B5E6C"/>
<path d="M12.6428 8.36682L8.37402 12.6501L11.3572 15.6332L15.6259 11.3499L12.6428 8.36682Z" fill="#5B5E6C"/>
<path d="M21.5922 11.3499L12.6428 2.40056C12.0937 1.85142 11.2033 1.85142 10.6541 2.40056C10.1049 2.9498 10.1049 3.8401 10.6541 4.38933L19.6035 13.3387C20.1526 13.8878 21.043 13.8878 21.5922 13.3387C22.1414 12.7895 22.1414 11.8991 21.5922 11.3499Z" fill="#5B5E6C"/>
<path d="M13.3461 19.6107L4.3967 10.6613C3.84755 10.1122 2.95716 10.1122 2.40802 10.6613C1.85878 11.2105 1.85878 12.1009 2.40802 12.6501L11.3574 21.5994C11.9065 22.1486 12.7969 22.1486 13.3461 21.5994C13.8953 21.0503 13.8953 20.1599 13.3461 19.6107Z" fill="#5B5E6C"/>
</g>
<defs>
<clipPath id="clip0">
<rect width="24" height="24" fill="white"/>
</clipPath>
</defs>
</svg>
