<svg width="24" height="24" viewBox="0 0 24 24" fill="none" xmlns="http://www.w3.org/2000/svg">
<path d="M20.6234 6.65102L20.2236 6.35638C20.0973 6.2722 19.9289 6.29324 19.8447 6.41952L19.508 6.90356L19.0661 6.56683C19.1713 6.20906 19.0661 5.8092 18.7293 5.59875C18.4137 5.38829 18.0348 5.40934 17.7612 5.61979L17.4245 5.36725L17.7612 4.8832C17.8454 4.75693 17.8244 4.58857 17.6981 4.50439L17.2982 4.20975C17.172 4.12557 17.0036 4.14661 16.9194 4.27289L15.9724 5.5777C15.8882 5.70397 15.9093 5.87234 16.0355 5.95652L16.4354 6.25115C16.5617 6.33534 16.73 6.31429 16.8142 6.18802L17.1299 5.74606L17.4456 5.97756C16.8773 6.79833 16.2249 7.72433 15.8672 8.14524C15.6988 8.01897 15.4673 7.8506 15.2989 7.72433C14.6255 7.1982 13.8468 6.58788 13.026 6.58788H10.711C9.89026 6.58788 9.11158 7.1982 8.43813 7.72433C8.26977 7.8506 8.03827 8.04001 7.86991 8.14524C7.51213 7.70329 6.85973 6.79833 6.2915 5.97756L6.60718 5.74606L6.92286 6.18802C7.00704 6.31429 7.17541 6.33534 7.30168 6.25115L7.70154 5.95652C7.82782 5.87234 7.84886 5.70397 7.76468 5.5777L6.81764 4.29393C6.73345 4.16766 6.56509 4.14661 6.43882 4.2308L6.03896 4.52543C5.91268 4.60961 5.89164 4.77798 5.97582 4.90425L6.31255 5.38829L5.97582 5.61979C5.70223 5.40934 5.30237 5.38829 5.00773 5.59875C4.69205 5.8092 4.56578 6.20906 4.671 6.56683L4.22905 6.90356L3.89233 6.41952C3.80814 6.29324 3.63978 6.2722 3.51351 6.35638L3.11365 6.65102C2.98737 6.7352 2.96633 6.90356 3.05051 7.02983L3.99755 8.33465C4.08173 8.46092 4.2501 8.48197 4.37637 8.39778L4.77623 8.10315C4.9025 8.01897 4.92355 7.8506 4.83937 7.72433L4.50264 7.28238L4.9025 6.98774C5.55491 7.95583 6.58614 9.42901 7.04914 9.76574C7.25959 9.91305 7.49109 9.97619 7.70154 9.97619C8.29081 9.97619 8.90113 9.51319 9.46936 9.07124C9.57458 8.98706 9.7219 8.88183 9.86922 8.75556L9.97445 13.2172L9.0274 20.8777C8.96427 21.4249 9.34308 21.93 9.89026 21.9931C10.4374 22.0562 10.9425 21.6774 11.0057 21.1303L11.8685 14.1642L12.7314 21.1303C12.7945 21.6353 13.2154 21.9931 13.7205 21.9931C13.7626 21.9931 13.8047 21.9931 13.8468 21.9931C14.394 21.93 14.7728 21.4249 14.7097 20.8777L13.7626 13.2172L13.8468 8.7766C13.9941 8.88183 14.1414 9.0081 14.2467 9.09228C14.7938 9.51319 15.4042 9.99723 16.0145 9.99723C16.246 9.99723 16.4564 9.9341 16.6669 9.78678C17.1299 9.45005 18.1611 7.99792 18.8135 7.00879L19.2134 7.30342L18.8977 7.74538C18.8135 7.87165 18.8346 8.04001 18.9608 8.12419L19.3607 8.41883C19.487 8.50301 19.6553 8.48197 19.7395 8.35569L20.6866 7.05088C20.7707 6.90356 20.7497 6.7352 20.6234 6.65102Z" fill="#5B5E6C"/>
<path d="M11.8685 5.99863C12.9726 5.99863 13.8678 5.1035 13.8678 3.99931C13.8678 2.89512 12.9726 2 11.8685 2C10.7643 2 9.86914 2.89512 9.86914 3.99931C9.86914 5.1035 10.7643 5.99863 11.8685 5.99863Z" fill="#5B5E6C"/>
</svg>