<svg width="24" height="24" viewBox="0 0 24 24" fill="none" xmlns="http://www.w3.org/2000/svg">
<g clip-path="url(#clip0)">
<path d="M12 3.51562C10.8369 3.51562 9.89062 4.46191 9.89062 5.625C9.89062 6.78809 10.8369 7.73438 12 7.73438C13.1631 7.73438 14.1094 6.78809 14.1094 5.625C14.1094 4.46191 13.1631 3.51562 12 3.51562Z" fill="#5B5E6C"/>
<path d="M12 0C8.89838 0 6.375 2.52338 6.375 5.625C6.375 6.68866 6.67365 7.72485 7.23889 8.62152L12 16.2188L16.7611 8.62152C17.3264 7.72485 17.625 6.68866 17.625 5.625C17.625 2.52338 15.1016 0 12 0ZM12 9.14062C10.0616 9.14062 8.48438 7.56335 8.48438 5.625C8.48438 3.68665 10.0616 2.10938 12 2.10938C13.9384 2.10938 15.5156 3.68665 15.5156 5.625C15.5156 7.56335 13.9384 9.14062 12 9.14062Z" fill="#5B5E6C"/>
<path d="M8.57812 24H15.4199L14.8792 19.7344H9.10529L8.57812 24Z" fill="#5B5E6C"/>
<path d="M9.28125 18.3281H11.6678L9.67621 15.1694L9.28125 18.3281Z" fill="#5B5E6C"/>
<path d="M16.1172 18.3281H21.6567L19.8989 14.1094H15.5762L16.1172 18.3281Z" fill="#5B5E6C"/>
<path d="M2.34375 18.3281H7.86401L8.39136 14.1094H4.10156L2.34375 18.3281Z" fill="#5B5E6C"/>
<path d="M12.332 18.3281H14.6981L14.2984 15.2098L12.332 18.3281Z" fill="#5B5E6C"/>
<path d="M7.68805 19.7344H1.75763L0 24H7.16089L7.68805 19.7344Z" fill="#5B5E6C"/>
<path d="M22.2421 19.7344H16.2969L16.8378 24H23.9998L22.2421 19.7344Z" fill="#5B5E6C"/>
</g>
<defs>
<clipPath id="clip0">
<rect width="24" height="24" fill="white"/>
</clipPath>
</defs>
</svg>
