<svg width="24" height="24" viewBox="0 0 24 24" fill="none" xmlns="http://www.w3.org/2000/svg">
<path d="M21.5601 11.6511L21.3117 10.492C21.2496 10.1816 20.9185 9.99529 20.608 10.0781L16.2201 11.2786C15.9303 11.3613 15.744 11.6511 15.8268 11.9409L15.9924 12.686C16.0545 12.9758 16.3443 13.162 16.634 13.1207L17.9794 12.893L18.5382 19.0609L2.95281 19.9923C2.41467 20.0337 1.98001 20.4891 2.00071 21.0272C2.02141 21.5653 2.45606 22 3.0149 22H19.7387C20.0285 22 20.2975 21.8758 20.4838 21.6688C20.6701 21.4619 20.7736 21.1721 20.7529 20.903L19.9871 12.5204L21.1255 12.3134C21.4359 12.272 21.6429 11.9616 21.5601 11.6511Z" fill="#5B5E6C"/>
<path d="M3.38783 14.735H6.16134C6.80297 14.735 7.3825 14.4452 7.79646 13.9485L8.3139 13.2862L8.29321 13.2655L8.12762 13.1206C7.92065 12.955 7.77576 12.8101 7.67227 12.7273C7.32041 12.4168 7.15483 12.0857 7.09274 11.7545L6.30622 12.7687C6.24413 12.7894 6.20273 12.8101 6.16134 12.8101H3.38783C2.84969 12.8101 2.41504 13.2448 2.41504 13.7829C2.41504 14.3003 2.84969 14.735 3.38783 14.735Z" fill="#5B5E6C"/>
<path d="M6.01533 9.97456C6.243 9.97456 6.47068 9.87107 6.63626 9.68479L7.69185 8.40153C7.79534 8.25664 7.96092 8.17385 8.1265 8.13245C8.43697 8.07036 8.70604 8.02897 8.93371 7.98757L8.35418 9.5192L8.25069 9.80897C7.81604 10.9267 7.60906 11.589 8.18859 12.1271C8.31278 12.2306 8.54046 12.4376 8.80953 12.6653C9.61674 13.3483 10.8379 14.3832 10.8379 14.3832C11.107 14.6109 11.314 14.9006 11.4588 15.2111L12.5765 17.7776C12.7421 18.1295 13.094 18.3572 13.4665 18.3572C13.5907 18.3572 13.7356 18.3365 13.8598 18.2744C14.3565 18.0674 14.5635 17.4878 14.3565 16.9911L13.2182 14.4039C12.9698 13.8243 12.5765 13.3069 12.1005 12.8929L10.8586 11.8374L12.3488 8.5878C12.4937 8.71199 12.68 8.85688 12.8663 9.02246C13.2802 9.37432 13.7977 9.5606 14.3358 9.5813L16.2193 9.62269C16.654 9.64339 17.0265 9.29153 17.0472 8.83618C17.0679 8.40152 16.7161 8.02896 16.2607 8.00827L14.3979 7.96687C14.2323 7.96687 14.0668 7.90478 13.9426 7.78059C12.4109 6.47663 12.204 6.43524 11.997 6.39384L10.6309 6.18686C10.4447 6.14547 10.2377 6.10407 7.81603 6.55942C7.27789 6.66291 6.78115 6.95268 6.42928 7.36664L5.3737 8.6499C5.08393 9.00176 5.14602 9.49851 5.47719 9.78828C5.66347 9.91246 5.84975 9.97456 6.01533 9.97456Z" fill="#5B5E6C"/>
<path d="M13.5405 4.5627C13.7702 3.60686 13.1816 2.64575 12.2258 2.41601C11.2699 2.18627 10.3088 2.77488 10.0791 3.73072C9.84933 4.68656 10.4379 5.64767 11.3938 5.87741C12.3496 6.10716 13.3107 5.51854 13.5405 4.5627Z" fill="#5B5E6C"/>
</svg>
