<svg width="24" height="24" viewBox="0 0 24 24" fill="none" xmlns="http://www.w3.org/2000/svg">
<path d="M9.38458 14.8249C9.44542 14.8706 9.52147 14.8706 9.58231 14.8249C9.64315 14.7793 9.7192 14.7185 9.76484 14.688C10.1451 14.4142 10.7839 13.9275 11.8943 13.9275C13.0198 13.9275 13.6435 14.399 14.0237 14.688C14.0693 14.7185 14.1454 14.7641 14.2062 14.8249C14.2671 14.8706 14.3431 14.8706 14.404 14.8249C14.4648 14.7793 14.5409 14.7185 14.5713 14.7032C14.693 14.612 14.8451 14.5055 15.0428 14.3838L13.4001 11.5699L13.5674 9.3188L15.7881 8.75602C16.2596 8.63434 16.5486 8.14761 16.4422 7.67609C16.3205 7.20457 15.8337 6.91558 15.3622 7.02205L12.5179 7.73693C12.1529 7.82819 11.8791 8.14761 11.8486 8.54308L11.6357 11.4178L7.90918 14.034C8.5328 14.1861 8.94348 14.4903 9.21727 14.688C9.24769 14.7185 9.32374 14.7793 9.38458 14.8249Z" fill="#5B5E6C"/>
<path d="M18.2667 15.4638C17.9473 15.2204 17.5062 14.901 16.7 14.901C15.8939 14.901 15.4528 15.2204 15.1334 15.4638C14.8596 15.6615 14.6923 15.7984 14.2816 15.7984C13.8861 15.7984 13.7188 15.6767 13.445 15.4638C13.1256 15.2204 12.6845 14.901 11.8784 14.901C11.0722 14.901 10.6311 15.2204 10.3117 15.4638C10.0379 15.6615 9.8706 15.7984 9.45992 15.7984C9.04924 15.7984 8.89714 15.6767 8.60814 15.4638C8.28873 15.2204 7.84763 14.901 7.04148 14.901C6.23534 14.901 5.79424 15.2204 5.47482 15.4638C5.20104 15.6615 5.03372 15.7984 4.62305 15.7984V17C5.42919 17 5.87029 16.6806 6.18971 16.4372C6.46349 16.2395 6.63081 16.1026 7.04148 16.1026C7.45216 16.1026 7.60426 16.2243 7.89326 16.4372C8.21268 16.6806 8.65377 17 9.45992 17C10.2661 17 10.7072 16.6806 11.0266 16.4372C11.3004 16.2395 11.4677 16.1026 11.8784 16.1026C12.2738 16.1026 12.4411 16.2243 12.7149 16.4372C13.0343 16.6806 13.4754 17 14.2816 17C15.0877 17 15.5288 16.6806 15.8482 16.4372C16.122 16.2395 16.2893 16.1026 16.7 16.1026C17.0955 16.1026 17.2628 16.2243 17.5518 16.4372C17.8712 16.6806 18.3123 17 19.1185 17V15.7984C18.723 15.7832 18.5557 15.6615 18.2667 15.4638Z" fill="#5B5E6C"/>
<path d="M16.305 13.3647C17.3467 13.3647 18.1911 12.5203 18.1911 11.4787C18.1911 10.437 17.3467 9.59259 16.305 9.59259C15.2634 9.59259 14.4189 10.437 14.4189 11.4787C14.4189 12.5203 15.2634 13.3647 16.305 13.3647Z" fill="#5B5E6C"/>
</svg>
