<svg width="24" height="24" viewBox="0 0 24 24" fill="none" xmlns="http://www.w3.org/2000/svg">
<path d="M8.34811 14.5223C9.30083 14.5223 10.0732 13.75 10.0732 12.7973C10.0732 11.8445 9.30083 11.0722 8.34811 11.0722C7.39538 11.0722 6.62305 11.8445 6.62305 12.7973C6.62305 13.75 7.39538 14.5223 8.34811 14.5223Z" fill="#5B5E6C"/>
<path d="M3.9985 10.4103C4.95122 10.4103 5.72356 9.63799 5.72356 8.68527C5.72356 7.73254 4.95122 6.96021 3.9985 6.96021C3.04577 6.96021 2.27344 7.73254 2.27344 8.68527C2.27344 9.63799 3.04577 10.4103 3.9985 10.4103Z" fill="#5B5E6C"/>
<path d="M9.97063 7.12774C9.66368 7.05624 9.34669 7.03828 9.03364 7.07466L7.7888 7.21933L5.56658 4.28993C5.32104 4.07416 4.94362 4.09853 4.72785 4.34407C4.51208 4.58961 4.53645 4.96705 4.78199 5.1828L6.55864 7.43022C6.20984 7.60058 5.95816 7.93633 5.90501 8.33851L5.81415 9.02492C5.8445 9.38037 5.84669 9.45574 6.04059 9.70106L3.77938 12.7362C3.63792 12.9261 3.59181 13.1793 3.6824 13.398C3.94226 14.0256 4.68112 14.052 5.01297 13.6065C5.01297 13.6065 7.29781 10.532 7.30872 10.5146C9.2011 10.1192 10.2214 9.38417 10.2214 9.38417V7.18616L9.97063 7.12774Z" fill="#5B5E6C"/>
<path d="M20.7485 10.0686L14.4622 7.8062L16.5213 3.81138L19.8414 3.5714C20.2735 3.62283 20.6692 3.31132 20.7206 2.87919C20.772 2.44704 20.4605 2.0514 20.0284 2C20.0284 2 15.8846 2.28591 15.7708 2.3283C15.5496 2.38895 15.355 2.54072 15.2549 2.76527L12.1758 7.27286L12.2157 9.35914L20.3325 11.5955C20.7523 11.7099 21.1895 11.46 21.3039 11.0401H21.3039C21.4183 10.6202 21.1684 10.1831 20.7485 10.0686Z" fill="#5B5E6C"/>
<path d="M14.1973 14.0514C14.2912 14.1211 15.5496 14.5864 15.5496 14.5864L16.9176 11.5846C16.8545 11.5444 15.5766 11.0638 15.5766 11.0638L14.1973 14.0514Z" fill="#5B5E6C"/>
<path d="M21.5392 16.615C21.5381 16.6113 21.5368 16.6076 21.5356 16.6038C21.496 16.4812 21.4296 16.3658 21.3296 16.2717C21.3296 16.2717 17.1775 11.814 17.1505 11.7835L15.8281 14.6853L18.0409 15.9462L17.5818 21.1442C17.5462 21.5779 17.8721 21.9619 18.3058 21.9974C18.7395 22.0329 19.1235 21.7071 19.159 21.2733L19.5143 16.9342L19.9981 17.2586L20.0005 21.1202C19.965 21.5539 20.2908 21.9378 20.7245 21.9733C21.1583 22.0089 21.5422 21.683 21.5777 21.2493C21.5777 21.2493 21.618 16.8918 21.5392 16.615Z" fill="#5B5E6C"/>
<path d="M14.757 10.7298L13.0694 10.0356C12.7753 9.91465 12.452 9.86238 12.1354 9.88384L12.0006 9.89309L11.9792 6.99478C11.9772 6.5596 11.6196 6.20511 11.1844 6.20704H11.1844C10.7492 6.20896 10.3947 6.56658 10.3967 7.00178L10.4191 10.0241C10.1818 10.0883 9.97733 10.2407 9.85557 10.4611C9.73001 10.6883 9.70668 10.9593 9.79135 11.2044L10.3063 12.6951C10.4017 12.9717 10.6068 13.1838 10.8685 13.2771C11.626 13.5472 12.8399 13.6244 13.4104 13.6463L14.757 10.7298Z" fill="#5B5E6C"/>
</svg> 