<svg width="24" height="24" viewBox="0 0 24 24" fill="none" xmlns="http://www.w3.org/2000/svg">
<path d="M14.1374 19.6426C13.9373 19.9762 13.4703 20.0762 13.1368 19.9428L12.5031 19.7093H12.4697L14.1374 19.0756C14.2374 19.2757 14.2374 19.4425 14.1374 19.6426Z" fill="#5B5E6C"/>
<path d="M9.26808 18.4419C8.76778 18.2418 6.59982 17.408 6.73323 17.4413C6.19958 17.2412 5.96611 16.6742 6.23294 16.2406C6.53311 15.7737 7.16683 15.6069 7.70048 15.8737C10.302 17.1078 11.2026 17.5414 11.1692 17.508H11.2026C11.1359 17.5414 9.43484 18.3419 9.26808 18.4419Z" fill="#5B5E6C"/>
<path d="M11.7698 7.03516C12.7704 7.03516 13.5709 7.83563 13.5709 8.83623C13.5709 9.83682 12.7704 10.6373 11.7698 10.6373C10.7692 10.6373 9.96875 9.83682 9.96875 8.83623C9.96875 7.83563 10.7692 7.03516 11.7698 7.03516Z" fill="#5B5E6C"/>
<path d="M7.43388 10.2704C6.66675 9.23645 6.83352 7.83562 7.83411 7.03514C8.93477 6.16796 10.1688 5.53425 10.1688 4.66706C10.1688 4.30018 10.469 4 10.8359 4C11.2028 4 11.503 4.30018 11.503 4.66706C11.503 6.33472 9.80195 7.20191 8.66794 8.10244C8.26771 8.43597 8.16765 9.00298 8.50118 9.43657L9.90201 11.3043C11.1361 11.0709 12.3701 11.0709 13.6042 11.3043L15.005 9.43657C15.3386 9.03633 15.2385 8.43597 14.8383 8.10244C13.7376 7.20191 12.07 6.36808 12.07 4.66706C12.07 4.30018 12.3701 4 12.737 4C13.1039 4 13.4041 4.30018 13.4041 4.66706C13.4041 5.53425 14.6048 6.16796 15.6721 7.03514C16.6394 7.83562 16.8061 9.23645 16.039 10.237L14.5048 12.2716C14.2046 13.5057 14.1379 14.7397 14.3046 15.9404C14.2713 15.9404 11.5363 17.2746 11.7031 17.1745L9.16824 16.0071C9.30165 14.7731 9.23495 13.539 8.96812 12.3049L7.43388 10.2704Z" fill="#5B5E6C"/>
<path d="M16.8063 17.4747C16.2059 17.7081 19.041 16.6075 10.4025 19.9428C10.069 20.0762 9.60201 19.9762 9.40189 19.6426C9.20177 19.3091 9.36854 18.9422 9.70207 18.7754C10.3358 18.4753 7.46741 19.8427 15.8391 15.8737C16.3394 15.6069 17.0064 15.807 17.3066 16.2406C17.6068 16.7075 17.3733 17.2412 16.8063 17.4747Z" fill="#5B5E6C"/>
</svg>